<mxfile host="Electron" modified="2024-01-16T10:20:25.596Z" agent="Mozilla/5.0 (Windows NT 10.0; Win64; x64) AppleWebKit/537.36 (KHTML, like Gecko) draw.io/22.1.2 Chrome/114.0.5735.289 Electron/25.9.4 Safari/537.36" etag="nboUANQ8DpmMYVLdEag_" version="22.1.2" type="device">
  <diagram name="Pagina-1" id="wt3mNmIi40rkRHVksJ68">
    <mxGraphModel dx="1647" dy="1169" grid="1" gridSize="10" guides="1" tooltips="1" connect="1" arrows="1" fold="1" page="0" pageScale="1" pageWidth="827" pageHeight="1169" math="0" shadow="0">
      <root>
        <mxCell id="0" />
        <mxCell id="1" parent="0" />
        <mxCell id="cK3IBbtlBu3RU6C5tx7a-1" value="" style="endArrow=none;html=1;rounded=0;" edge="1" parent="1">
          <mxGeometry width="50" height="50" relative="1" as="geometry">
            <mxPoint x="-320" y="-120" as="sourcePoint" />
            <mxPoint x="1800" y="-120" as="targetPoint" />
          </mxGeometry>
        </mxCell>
        <mxCell id="cK3IBbtlBu3RU6C5tx7a-2" value="" style="endArrow=none;html=1;rounded=0;" edge="1" parent="1">
          <mxGeometry width="50" height="50" relative="1" as="geometry">
            <mxPoint x="-320" as="sourcePoint" />
            <mxPoint x="1800" as="targetPoint" />
          </mxGeometry>
        </mxCell>
        <mxCell id="cK3IBbtlBu3RU6C5tx7a-3" value="&lt;font style=&quot;font-size: 40px;&quot;&gt;Produzione&amp;nbsp;A&lt;/font&gt;" style="text;html=1;align=center;verticalAlign=middle;resizable=0;points=[];autosize=1;strokeColor=none;fillColor=none;" vertex="1" parent="1">
          <mxGeometry x="-325" y="-90" width="260" height="60" as="geometry" />
        </mxCell>
        <mxCell id="cK3IBbtlBu3RU6C5tx7a-4" value="" style="endArrow=none;html=1;rounded=0;" edge="1" parent="1">
          <mxGeometry width="50" height="50" relative="1" as="geometry">
            <mxPoint x="-320" y="120" as="sourcePoint" />
            <mxPoint x="1800" y="120" as="targetPoint" />
          </mxGeometry>
        </mxCell>
        <mxCell id="cK3IBbtlBu3RU6C5tx7a-5" value="" style="endArrow=none;html=1;rounded=0;" edge="1" parent="1">
          <mxGeometry width="50" height="50" relative="1" as="geometry">
            <mxPoint x="-320" y="240" as="sourcePoint" />
            <mxPoint x="1800" y="240" as="targetPoint" />
          </mxGeometry>
        </mxCell>
        <mxCell id="cK3IBbtlBu3RU6C5tx7a-6" value="&lt;font style=&quot;font-size: 40px;&quot;&gt;Produzione&amp;nbsp;C&lt;/font&gt;" style="text;html=1;align=center;verticalAlign=middle;resizable=0;points=[];autosize=1;strokeColor=none;fillColor=none;" vertex="1" parent="1">
          <mxGeometry x="-330" y="150" width="270" height="60" as="geometry" />
        </mxCell>
        <mxCell id="cK3IBbtlBu3RU6C5tx7a-7" value="&lt;font style=&quot;font-size: 40px;&quot;&gt;Produzione B&lt;/font&gt;" style="text;html=1;align=center;verticalAlign=middle;resizable=0;points=[];autosize=1;strokeColor=none;fillColor=none;" vertex="1" parent="1">
          <mxGeometry x="-325" y="30" width="260" height="60" as="geometry" />
        </mxCell>
        <mxCell id="cK3IBbtlBu3RU6C5tx7a-8" value="" style="endArrow=none;html=1;rounded=0;" edge="1" parent="1">
          <mxGeometry width="50" height="50" relative="1" as="geometry">
            <mxPoint x="-60" y="240" as="sourcePoint" />
            <mxPoint x="-60" y="-200" as="targetPoint" />
          </mxGeometry>
        </mxCell>
        <mxCell id="cK3IBbtlBu3RU6C5tx7a-9" value="&lt;font style=&quot;font-size: 27px;&quot;&gt;Configurazione&lt;br&gt;macchina&lt;br&gt;&lt;/font&gt;" style="text;html=1;align=center;verticalAlign=middle;resizable=0;points=[];autosize=1;strokeColor=none;fillColor=none;" vertex="1" parent="1">
          <mxGeometry x="-70" y="-195" width="210" height="80" as="geometry" />
        </mxCell>
        <mxCell id="cK3IBbtlBu3RU6C5tx7a-11" value="" style="rounded=1;whiteSpace=wrap;html=1;fillColor=#B3B3B3;" vertex="1" parent="1">
          <mxGeometry x="-40" y="-90" width="160" height="60" as="geometry" />
        </mxCell>
        <mxCell id="cK3IBbtlBu3RU6C5tx7a-12" value="" style="rounded=1;whiteSpace=wrap;html=1;fillColor=#B3B3B3;" vertex="1" parent="1">
          <mxGeometry x="-40" y="30" width="160" height="60" as="geometry" />
        </mxCell>
        <mxCell id="cK3IBbtlBu3RU6C5tx7a-13" value="" style="rounded=1;whiteSpace=wrap;html=1;fillColor=#B3B3B3;" vertex="1" parent="1">
          <mxGeometry x="-40" y="150" width="160" height="60" as="geometry" />
        </mxCell>
        <mxCell id="cK3IBbtlBu3RU6C5tx7a-14" value="" style="rounded=1;whiteSpace=wrap;html=1;fillColor=#FFB570;" vertex="1" parent="1">
          <mxGeometry x="160" y="-90" width="40" height="60" as="geometry" />
        </mxCell>
        <mxCell id="cK3IBbtlBu3RU6C5tx7a-15" value="" style="rounded=1;whiteSpace=wrap;html=1;fillColor=#FFB570;" vertex="1" parent="1">
          <mxGeometry x="200" y="30" width="40" height="60" as="geometry" />
        </mxCell>
        <mxCell id="cK3IBbtlBu3RU6C5tx7a-16" value="" style="rounded=1;whiteSpace=wrap;html=1;fillColor=#FFB570;" vertex="1" parent="1">
          <mxGeometry x="240" y="150" width="40" height="60" as="geometry" />
        </mxCell>
        <mxCell id="cK3IBbtlBu3RU6C5tx7a-17" value="" style="rounded=1;whiteSpace=wrap;html=1;fillColor=#97D077;" vertex="1" parent="1">
          <mxGeometry x="210" y="-90" width="160" height="60" as="geometry" />
        </mxCell>
        <mxCell id="cK3IBbtlBu3RU6C5tx7a-18" value="" style="rounded=1;whiteSpace=wrap;html=1;fillColor=#97D077;" vertex="1" parent="1">
          <mxGeometry x="370" y="30" width="160" height="60" as="geometry" />
        </mxCell>
        <mxCell id="cK3IBbtlBu3RU6C5tx7a-19" value="" style="rounded=1;whiteSpace=wrap;html=1;fillColor=#97D077;" vertex="1" parent="1">
          <mxGeometry x="530" y="150" width="160" height="60" as="geometry" />
        </mxCell>
        <mxCell id="cK3IBbtlBu3RU6C5tx7a-20" value="" style="rounded=1;whiteSpace=wrap;html=1;fillColor=#FFB570;" vertex="1" parent="1">
          <mxGeometry x="380" y="-90" width="80" height="60" as="geometry" />
        </mxCell>
        <mxCell id="cK3IBbtlBu3RU6C5tx7a-21" value="" style="rounded=1;whiteSpace=wrap;html=1;fillColor=#FFB570;" vertex="1" parent="1">
          <mxGeometry x="540" y="30" width="80" height="60" as="geometry" />
        </mxCell>
        <mxCell id="cK3IBbtlBu3RU6C5tx7a-22" value="" style="rounded=1;whiteSpace=wrap;html=1;fillColor=#FFB570;" vertex="1" parent="1">
          <mxGeometry x="700" y="150" width="80" height="60" as="geometry" />
        </mxCell>
        <mxCell id="cK3IBbtlBu3RU6C5tx7a-23" value="" style="rounded=1;whiteSpace=wrap;html=1;fillColor=#FFB570;" vertex="1" parent="1">
          <mxGeometry x="800" y="-90" width="40" height="60" as="geometry" />
        </mxCell>
        <mxCell id="cK3IBbtlBu3RU6C5tx7a-24" value="" style="rounded=1;whiteSpace=wrap;html=1;fillColor=#FFB570;" vertex="1" parent="1">
          <mxGeometry x="840" y="30" width="40" height="60" as="geometry" />
        </mxCell>
        <mxCell id="cK3IBbtlBu3RU6C5tx7a-25" value="" style="rounded=1;whiteSpace=wrap;html=1;fillColor=#FFB570;" vertex="1" parent="1">
          <mxGeometry x="880" y="150" width="40" height="60" as="geometry" />
        </mxCell>
        <mxCell id="cK3IBbtlBu3RU6C5tx7a-26" value="" style="rounded=1;whiteSpace=wrap;html=1;fillColor=#97D077;" vertex="1" parent="1">
          <mxGeometry x="850" y="-90" width="160" height="60" as="geometry" />
        </mxCell>
        <mxCell id="cK3IBbtlBu3RU6C5tx7a-27" value="" style="rounded=1;whiteSpace=wrap;html=1;fillColor=#97D077;" vertex="1" parent="1">
          <mxGeometry x="1010" y="30" width="160" height="60" as="geometry" />
        </mxCell>
        <mxCell id="cK3IBbtlBu3RU6C5tx7a-28" value="" style="rounded=1;whiteSpace=wrap;html=1;fillColor=#97D077;" vertex="1" parent="1">
          <mxGeometry x="1170" y="150" width="160" height="60" as="geometry" />
        </mxCell>
        <mxCell id="cK3IBbtlBu3RU6C5tx7a-29" value="" style="rounded=1;whiteSpace=wrap;html=1;fillColor=#FFB570;" vertex="1" parent="1">
          <mxGeometry x="1020" y="-90" width="80" height="60" as="geometry" />
        </mxCell>
        <mxCell id="cK3IBbtlBu3RU6C5tx7a-30" value="" style="rounded=1;whiteSpace=wrap;html=1;fillColor=#FFB570;" vertex="1" parent="1">
          <mxGeometry x="1180" y="30" width="80" height="60" as="geometry" />
        </mxCell>
        <mxCell id="cK3IBbtlBu3RU6C5tx7a-31" value="" style="rounded=1;whiteSpace=wrap;html=1;fillColor=#FFB570;" vertex="1" parent="1">
          <mxGeometry x="1340" y="150" width="80" height="60" as="geometry" />
        </mxCell>
        <mxCell id="cK3IBbtlBu3RU6C5tx7a-36" value="" style="endArrow=none;html=1;rounded=0;" edge="1" parent="1">
          <mxGeometry width="50" height="50" relative="1" as="geometry">
            <mxPoint x="140" y="240" as="sourcePoint" />
            <mxPoint x="140" y="-200" as="targetPoint" />
          </mxGeometry>
        </mxCell>
        <mxCell id="cK3IBbtlBu3RU6C5tx7a-38" value="" style="endArrow=none;dashed=1;html=1;dashPattern=1 3;strokeWidth=2;rounded=0;" edge="1" parent="1">
          <mxGeometry width="50" height="50" relative="1" as="geometry">
            <mxPoint x="790" y="240" as="sourcePoint" />
            <mxPoint x="790" y="-160" as="targetPoint" />
          </mxGeometry>
        </mxCell>
        <mxCell id="cK3IBbtlBu3RU6C5tx7a-39" value="" style="endArrow=none;html=1;rounded=0;" edge="1" parent="1">
          <mxGeometry width="50" height="50" relative="1" as="geometry">
            <mxPoint x="1600" y="240" as="sourcePoint" />
            <mxPoint x="1600" y="-200" as="targetPoint" />
          </mxGeometry>
        </mxCell>
        <mxCell id="cK3IBbtlBu3RU6C5tx7a-40" value="" style="rounded=1;whiteSpace=wrap;html=1;fillColor=#B3B3B3;" vertex="1" parent="1">
          <mxGeometry x="1620" y="-90" width="160" height="60" as="geometry" />
        </mxCell>
        <mxCell id="cK3IBbtlBu3RU6C5tx7a-41" value="" style="rounded=1;whiteSpace=wrap;html=1;fillColor=#B3B3B3;" vertex="1" parent="1">
          <mxGeometry x="1620" y="30" width="160" height="60" as="geometry" />
        </mxCell>
        <mxCell id="cK3IBbtlBu3RU6C5tx7a-42" value="" style="rounded=1;whiteSpace=wrap;html=1;fillColor=#B3B3B3;" vertex="1" parent="1">
          <mxGeometry x="1620" y="150" width="160" height="60" as="geometry" />
        </mxCell>
        <mxCell id="cK3IBbtlBu3RU6C5tx7a-43" value="" style="endArrow=none;html=1;rounded=0;" edge="1" parent="1">
          <mxGeometry width="50" height="50" relative="1" as="geometry">
            <mxPoint x="1800" y="240" as="sourcePoint" />
            <mxPoint x="1800" y="-200" as="targetPoint" />
          </mxGeometry>
        </mxCell>
        <mxCell id="cK3IBbtlBu3RU6C5tx7a-44" value="&lt;font style=&quot;font-size: 27px;&quot;&gt;Pulizia&lt;br&gt;macchina&lt;br&gt;&lt;/font&gt;" style="text;html=1;align=center;verticalAlign=middle;resizable=0;points=[];autosize=1;strokeColor=none;fillColor=none;" vertex="1" parent="1">
          <mxGeometry x="1630" y="-195" width="140" height="80" as="geometry" />
        </mxCell>
        <mxCell id="cK3IBbtlBu3RU6C5tx7a-46" value="&lt;font style=&quot;font-size: 50px;&quot;&gt;Lavorazione&lt;br&gt;&lt;/font&gt;" style="text;html=1;align=center;verticalAlign=middle;resizable=0;points=[];autosize=1;strokeColor=none;fillColor=none;" vertex="1" parent="1">
          <mxGeometry x="645" y="-240" width="300" height="70" as="geometry" />
        </mxCell>
        <mxCell id="cK3IBbtlBu3RU6C5tx7a-47" value="&lt;b&gt;Fase 1&lt;/b&gt;" style="rounded=1;whiteSpace=wrap;html=1;fillColor=#B3B3B3;" vertex="1" parent="1">
          <mxGeometry x="-105" y="610" width="160" height="60" as="geometry" />
        </mxCell>
        <mxCell id="cK3IBbtlBu3RU6C5tx7a-51" value="&lt;b&gt;Fase 2&lt;/b&gt;" style="rounded=1;whiteSpace=wrap;html=1;fillColor=#FFB570;" vertex="1" parent="1">
          <mxGeometry x="90" y="610" width="40" height="60" as="geometry" />
        </mxCell>
        <mxCell id="cK3IBbtlBu3RU6C5tx7a-52" value="&lt;b&gt;Fase 3&lt;/b&gt;" style="rounded=1;whiteSpace=wrap;html=1;fillColor=#97D077;" vertex="1" parent="1">
          <mxGeometry x="140" y="610" width="160" height="60" as="geometry" />
        </mxCell>
        <mxCell id="cK3IBbtlBu3RU6C5tx7a-53" value="&lt;b&gt;Fase 4&lt;/b&gt;" style="rounded=1;whiteSpace=wrap;html=1;fillColor=#FFB570;" vertex="1" parent="1">
          <mxGeometry x="310" y="610" width="80" height="60" as="geometry" />
        </mxCell>
        <mxCell id="cK3IBbtlBu3RU6C5tx7a-54" value="&lt;b&gt;Fase 5&lt;/b&gt;" style="rounded=1;whiteSpace=wrap;html=1;fillColor=#B3B3B3;" vertex="1" parent="1">
          <mxGeometry x="430" y="610" width="160" height="60" as="geometry" />
        </mxCell>
        <mxCell id="cK3IBbtlBu3RU6C5tx7a-55" value="&lt;font style=&quot;font-size: 22px;&quot;&gt;Configurazione&lt;br&gt;macchina&lt;br&gt;&lt;/font&gt;" style="text;html=1;align=center;verticalAlign=middle;resizable=0;points=[];autosize=1;strokeColor=none;fillColor=none;" vertex="1" parent="1">
          <mxGeometry x="-110" y="545" width="170" height="70" as="geometry" />
        </mxCell>
        <mxCell id="cK3IBbtlBu3RU6C5tx7a-56" value="&lt;font style=&quot;font-size: 22px;&quot;&gt;Lavorazione &lt;br&gt;macchina&lt;/font&gt;" style="text;html=1;align=center;verticalAlign=middle;resizable=0;points=[];autosize=1;strokeColor=none;fillColor=none;" vertex="1" parent="1">
          <mxGeometry x="150" y="545" width="140" height="70" as="geometry" />
        </mxCell>
        <mxCell id="cK3IBbtlBu3RU6C5tx7a-58" style="edgeStyle=orthogonalEdgeStyle;rounded=0;orthogonalLoop=1;jettySize=auto;html=1;" edge="1" parent="1" source="cK3IBbtlBu3RU6C5tx7a-57">
          <mxGeometry relative="1" as="geometry">
            <mxPoint x="110" y="680" as="targetPoint" />
          </mxGeometry>
        </mxCell>
        <mxCell id="cK3IBbtlBu3RU6C5tx7a-59" style="edgeStyle=orthogonalEdgeStyle;rounded=0;orthogonalLoop=1;jettySize=auto;html=1;" edge="1" parent="1" source="cK3IBbtlBu3RU6C5tx7a-57">
          <mxGeometry relative="1" as="geometry">
            <mxPoint x="350" y="680" as="targetPoint" />
          </mxGeometry>
        </mxCell>
        <mxCell id="cK3IBbtlBu3RU6C5tx7a-57" value="&lt;span style=&quot;font-size: 22px;&quot;&gt;Lavoro operaio&lt;/span&gt;" style="text;html=1;align=center;verticalAlign=middle;resizable=0;points=[];autosize=1;strokeColor=none;fillColor=none;" vertex="1" parent="1">
          <mxGeometry x="135" y="715" width="170" height="40" as="geometry" />
        </mxCell>
        <mxCell id="cK3IBbtlBu3RU6C5tx7a-60" value="&lt;font style=&quot;font-size: 22px;&quot;&gt;Pulizia&lt;br&gt;macchina&lt;br&gt;&lt;/font&gt;" style="text;html=1;align=center;verticalAlign=middle;resizable=0;points=[];autosize=1;strokeColor=none;fillColor=none;" vertex="1" parent="1">
          <mxGeometry x="450" y="545" width="120" height="70" as="geometry" />
        </mxCell>
        <mxCell id="cK3IBbtlBu3RU6C5tx7a-61" value="" style="endArrow=none;dashed=1;html=1;dashPattern=1 3;strokeWidth=2;rounded=0;" edge="1" parent="1">
          <mxGeometry width="50" height="50" relative="1" as="geometry">
            <mxPoint x="70" y="540" as="sourcePoint" />
            <mxPoint x="70" y="770" as="targetPoint" />
          </mxGeometry>
        </mxCell>
        <mxCell id="cK3IBbtlBu3RU6C5tx7a-62" value="" style="endArrow=none;dashed=1;html=1;dashPattern=1 3;strokeWidth=2;rounded=0;" edge="1" parent="1">
          <mxGeometry width="50" height="50" relative="1" as="geometry">
            <mxPoint x="410" y="540" as="sourcePoint" />
            <mxPoint x="410" y="770" as="targetPoint" />
          </mxGeometry>
        </mxCell>
        <mxCell id="cK3IBbtlBu3RU6C5tx7a-63" value="" style="endArrow=none;dashed=1;html=1;dashPattern=1 3;strokeWidth=2;rounded=0;" edge="1" parent="1">
          <mxGeometry width="50" height="50" relative="1" as="geometry">
            <mxPoint x="410" y="770" as="sourcePoint" />
            <mxPoint x="70" y="770" as="targetPoint" />
          </mxGeometry>
        </mxCell>
        <mxCell id="cK3IBbtlBu3RU6C5tx7a-64" value="" style="endArrow=none;dashed=1;html=1;dashPattern=1 3;strokeWidth=2;rounded=0;" edge="1" parent="1">
          <mxGeometry width="50" height="50" relative="1" as="geometry">
            <mxPoint x="410" y="540" as="sourcePoint" />
            <mxPoint x="70" y="540" as="targetPoint" />
          </mxGeometry>
        </mxCell>
        <mxCell id="cK3IBbtlBu3RU6C5tx7a-65" value="" style="sketch=0;html=1;aspect=fixed;strokeColor=none;shadow=0;fillColor=#000000;verticalAlign=top;labelPosition=center;verticalLabelPosition=bottom;shape=mxgraph.gcp2.arrow_cycle" vertex="1" parent="1">
          <mxGeometry x="177.89999999999998" y="780" width="84.21" height="80" as="geometry" />
        </mxCell>
        <mxCell id="cK3IBbtlBu3RU6C5tx7a-66" value="&lt;font style=&quot;&quot;&gt;&lt;font style=&quot;font-size: 20px;&quot;&gt;1° oggetto per produzione&lt;/font&gt;&lt;br&gt;&lt;/font&gt;" style="text;html=1;align=center;verticalAlign=middle;resizable=0;points=[];autosize=1;strokeColor=none;fillColor=none;" vertex="1" parent="1">
          <mxGeometry x="325" y="-160" width="250" height="40" as="geometry" />
        </mxCell>
        <mxCell id="cK3IBbtlBu3RU6C5tx7a-67" value="&lt;font style=&quot;&quot;&gt;&lt;font style=&quot;font-size: 20px;&quot;&gt;1° oggetto per produzione&lt;/font&gt;&lt;br&gt;&lt;/font&gt;" style="text;html=1;align=center;verticalAlign=middle;resizable=0;points=[];autosize=1;strokeColor=none;fillColor=none;" vertex="1" parent="1">
          <mxGeometry x="965" y="-160" width="250" height="40" as="geometry" />
        </mxCell>
        <mxCell id="cK3IBbtlBu3RU6C5tx7a-68" value="" style="endArrow=none;html=1;rounded=0;" edge="1" parent="1">
          <mxGeometry width="50" height="50" relative="1" as="geometry">
            <mxPoint x="1440" y="240" as="sourcePoint" />
            <mxPoint x="1440" y="-200" as="targetPoint" />
          </mxGeometry>
        </mxCell>
        <mxCell id="cK3IBbtlBu3RU6C5tx7a-69" value="&lt;font style=&quot;&quot;&gt;&lt;font style=&quot;font-size: 20px;&quot;&gt;N° oggetto &lt;br&gt;per produzione&lt;/font&gt;&lt;br&gt;&lt;/font&gt;" style="text;html=1;align=center;verticalAlign=middle;resizable=0;points=[];autosize=1;strokeColor=none;fillColor=none;" vertex="1" parent="1">
          <mxGeometry x="1440" y="-180" width="160" height="60" as="geometry" />
        </mxCell>
        <mxCell id="cK3IBbtlBu3RU6C5tx7a-70" value="&lt;font style=&quot;&quot;&gt;&lt;font style=&quot;font-size: 50px;&quot;&gt;...&lt;/font&gt;&lt;br&gt;&lt;/font&gt;" style="text;html=1;align=center;verticalAlign=middle;resizable=0;points=[];autosize=1;strokeColor=none;fillColor=none;" vertex="1" parent="1">
          <mxGeometry x="1485" y="-110" width="70" height="70" as="geometry" />
        </mxCell>
        <mxCell id="cK3IBbtlBu3RU6C5tx7a-71" value="&lt;font style=&quot;&quot;&gt;&lt;font style=&quot;font-size: 50px;&quot;&gt;...&lt;/font&gt;&lt;br&gt;&lt;/font&gt;" style="text;html=1;align=center;verticalAlign=middle;resizable=0;points=[];autosize=1;strokeColor=none;fillColor=none;" vertex="1" parent="1">
          <mxGeometry x="1485" y="10" width="70" height="70" as="geometry" />
        </mxCell>
        <mxCell id="cK3IBbtlBu3RU6C5tx7a-72" value="&lt;font style=&quot;&quot;&gt;&lt;font style=&quot;font-size: 50px;&quot;&gt;...&lt;/font&gt;&lt;br&gt;&lt;/font&gt;" style="text;html=1;align=center;verticalAlign=middle;resizable=0;points=[];autosize=1;strokeColor=none;fillColor=none;" vertex="1" parent="1">
          <mxGeometry x="1485" y="130" width="70" height="70" as="geometry" />
        </mxCell>
        <mxCell id="cK3IBbtlBu3RU6C5tx7a-73" value="" style="rounded=1;whiteSpace=wrap;html=1;fillColor=#FFB570;" vertex="1" parent="1">
          <mxGeometry x="-20" y="1130" width="40" height="60" as="geometry" />
        </mxCell>
        <mxCell id="cK3IBbtlBu3RU6C5tx7a-74" value="" style="rounded=1;whiteSpace=wrap;html=1;fillColor=#FFB570;" vertex="1" parent="1">
          <mxGeometry x="40" y="1250" width="40" height="60" as="geometry" />
        </mxCell>
        <mxCell id="cK3IBbtlBu3RU6C5tx7a-75" value="" style="rounded=1;whiteSpace=wrap;html=1;fillColor=#FFB570;" vertex="1" parent="1">
          <mxGeometry x="80" y="1370" width="40" height="60" as="geometry" />
        </mxCell>
        <mxCell id="cK3IBbtlBu3RU6C5tx7a-76" value="" style="rounded=1;whiteSpace=wrap;html=1;fillColor=#97D077;" vertex="1" parent="1">
          <mxGeometry x="40" y="1130" width="160" height="60" as="geometry" />
        </mxCell>
        <mxCell id="cK3IBbtlBu3RU6C5tx7a-77" value="" style="rounded=1;whiteSpace=wrap;html=1;fillColor=#97D077;" vertex="1" parent="1">
          <mxGeometry x="220" y="1250" width="160" height="60" as="geometry" />
        </mxCell>
        <mxCell id="cK3IBbtlBu3RU6C5tx7a-78" value="" style="rounded=1;whiteSpace=wrap;html=1;fillColor=#97D077;" vertex="1" parent="1">
          <mxGeometry x="400" y="1370" width="160" height="60" as="geometry" />
        </mxCell>
        <mxCell id="cK3IBbtlBu3RU6C5tx7a-79" value="" style="rounded=1;whiteSpace=wrap;html=1;fillColor=#FFB570;" vertex="1" parent="1">
          <mxGeometry x="220" y="1130" width="80" height="60" as="geometry" />
        </mxCell>
        <mxCell id="cK3IBbtlBu3RU6C5tx7a-80" value="" style="rounded=1;whiteSpace=wrap;html=1;fillColor=#FFB570;" vertex="1" parent="1">
          <mxGeometry x="400" y="1250" width="80" height="60" as="geometry" />
        </mxCell>
        <mxCell id="cK3IBbtlBu3RU6C5tx7a-81" value="" style="rounded=1;whiteSpace=wrap;html=1;fillColor=#FFB570;" vertex="1" parent="1">
          <mxGeometry x="580" y="1370" width="80" height="60" as="geometry" />
        </mxCell>
        <mxCell id="cK3IBbtlBu3RU6C5tx7a-82" value="&lt;font style=&quot;&quot;&gt;&lt;font style=&quot;font-size: 20px;&quot;&gt;1° ciclo di produzione&lt;/font&gt;&lt;br&gt;&lt;/font&gt;" style="text;html=1;align=center;verticalAlign=middle;resizable=0;points=[];autosize=1;strokeColor=none;fillColor=none;" vertex="1" parent="1">
          <mxGeometry x="175" y="1080" width="210" height="40" as="geometry" />
        </mxCell>
        <mxCell id="cK3IBbtlBu3RU6C5tx7a-83" value="" style="endArrow=none;html=1;rounded=0;strokeWidth=3;" edge="1" parent="1">
          <mxGeometry width="50" height="50" relative="1" as="geometry">
            <mxPoint x="-40" y="1520" as="sourcePoint" />
            <mxPoint x="-40" y="1120" as="targetPoint" />
          </mxGeometry>
        </mxCell>
        <mxCell id="cK3IBbtlBu3RU6C5tx7a-84" value="" style="endArrow=none;html=1;rounded=0;strokeWidth=3;" edge="1" parent="1">
          <mxGeometry width="50" height="50" relative="1" as="geometry">
            <mxPoint x="680" y="1520" as="sourcePoint" />
            <mxPoint x="680" y="1120" as="targetPoint" />
          </mxGeometry>
        </mxCell>
        <mxCell id="cK3IBbtlBu3RU6C5tx7a-85" value="" style="endArrow=none;dashed=1;html=1;dashPattern=1 3;strokeWidth=4;rounded=0;" edge="1" parent="1">
          <mxGeometry width="50" height="50" relative="1" as="geometry">
            <mxPoint x="30" y="1520" as="sourcePoint" />
            <mxPoint x="30" y="1120" as="targetPoint" />
          </mxGeometry>
        </mxCell>
        <mxCell id="cK3IBbtlBu3RU6C5tx7a-86" value="" style="endArrow=none;dashed=1;html=1;dashPattern=1 3;strokeWidth=4;rounded=0;" edge="1" parent="1">
          <mxGeometry width="50" height="50" relative="1" as="geometry">
            <mxPoint x="570" y="1520" as="sourcePoint" />
            <mxPoint x="570" y="1120" as="targetPoint" />
          </mxGeometry>
        </mxCell>
        <mxCell id="cK3IBbtlBu3RU6C5tx7a-87" value="" style="endArrow=none;html=1;rounded=0;strokeWidth=3;" edge="1" parent="1">
          <mxGeometry width="50" height="50" relative="1" as="geometry">
            <mxPoint x="-80" y="1440" as="sourcePoint" />
            <mxPoint x="720" y="1440" as="targetPoint" />
          </mxGeometry>
        </mxCell>
        <mxCell id="cK3IBbtlBu3RU6C5tx7a-90" value="&lt;font style=&quot;&quot;&gt;&lt;span style=&quot;font-size: 20px;&quot;&gt;&lt;b&gt;Fase3&lt;/b&gt; x 3 prodotti&lt;/span&gt;&lt;br&gt;&lt;/font&gt;" style="text;html=1;align=center;verticalAlign=middle;resizable=0;points=[];autosize=1;strokeColor=none;fillColor=none;" vertex="1" parent="1">
          <mxGeometry x="190" y="1520" width="180" height="40" as="geometry" />
        </mxCell>
        <mxCell id="cK3IBbtlBu3RU6C5tx7a-91" value="&lt;font style=&quot;&quot;&gt;&lt;font style=&quot;font-size: 20px;&quot;&gt;&lt;b&gt;Fase2&lt;/b&gt; di A&lt;/font&gt;&lt;br&gt;&lt;/font&gt;" style="text;html=1;align=center;verticalAlign=middle;resizable=0;points=[];autosize=1;strokeColor=none;fillColor=none;" vertex="1" parent="1">
          <mxGeometry x="-55" y="1520" width="120" height="40" as="geometry" />
        </mxCell>
        <mxCell id="cK3IBbtlBu3RU6C5tx7a-92" value="&lt;font style=&quot;&quot;&gt;&lt;font style=&quot;font-size: 20px;&quot;&gt;&lt;b&gt;Fase4&lt;/b&gt; di C&lt;/font&gt;&lt;br&gt;&lt;/font&gt;" style="text;html=1;align=center;verticalAlign=middle;resizable=0;points=[];autosize=1;strokeColor=none;fillColor=none;" vertex="1" parent="1">
          <mxGeometry x="560" y="1520" width="120" height="40" as="geometry" />
        </mxCell>
        <mxCell id="cK3IBbtlBu3RU6C5tx7a-93" value="" style="endArrow=none;dashed=1;html=1;dashPattern=1 3;strokeWidth=2;rounded=0;" edge="1" parent="1">
          <mxGeometry width="50" height="50" relative="1" as="geometry">
            <mxPoint x="210" y="1450" as="sourcePoint" />
            <mxPoint x="210" y="1120" as="targetPoint" />
          </mxGeometry>
        </mxCell>
        <mxCell id="cK3IBbtlBu3RU6C5tx7a-94" value="" style="endArrow=none;dashed=1;html=1;dashPattern=1 3;strokeWidth=2;rounded=0;" edge="1" parent="1">
          <mxGeometry width="50" height="50" relative="1" as="geometry">
            <mxPoint x="390" y="1450" as="sourcePoint" />
            <mxPoint x="390" y="1120" as="targetPoint" />
          </mxGeometry>
        </mxCell>
        <mxCell id="cK3IBbtlBu3RU6C5tx7a-99" value="&lt;font style=&quot;font-size: 40px;&quot;&gt;A&lt;/font&gt;" style="text;html=1;align=center;verticalAlign=middle;resizable=0;points=[];autosize=1;strokeColor=none;fillColor=none;" vertex="1" parent="1">
          <mxGeometry x="-105" y="1130" width="50" height="60" as="geometry" />
        </mxCell>
        <mxCell id="cK3IBbtlBu3RU6C5tx7a-100" value="&lt;font style=&quot;font-size: 40px;&quot;&gt;C&lt;/font&gt;" style="text;html=1;align=center;verticalAlign=middle;resizable=0;points=[];autosize=1;strokeColor=none;fillColor=none;" vertex="1" parent="1">
          <mxGeometry x="-105" y="1370" width="50" height="60" as="geometry" />
        </mxCell>
        <mxCell id="cK3IBbtlBu3RU6C5tx7a-101" value="&lt;font style=&quot;font-size: 40px;&quot;&gt;B&lt;/font&gt;" style="text;html=1;align=center;verticalAlign=middle;resizable=0;points=[];autosize=1;strokeColor=none;fillColor=none;" vertex="1" parent="1">
          <mxGeometry x="-105" y="1250" width="50" height="60" as="geometry" />
        </mxCell>
        <mxCell id="cK3IBbtlBu3RU6C5tx7a-102" value="&lt;div style=&quot;&quot;&gt;&lt;span style=&quot;background-color: initial;&quot;&gt;&lt;font style=&quot;font-size: 18px;&quot;&gt;LavMacchinaA&lt;/font&gt;&lt;/span&gt;&lt;/div&gt;" style="text;html=1;align=center;verticalAlign=middle;resizable=0;points=[];autosize=1;strokeColor=none;fillColor=none;" vertex="1" parent="1">
          <mxGeometry x="50" y="1460" width="140" height="40" as="geometry" />
        </mxCell>
        <mxCell id="cK3IBbtlBu3RU6C5tx7a-103" value="&lt;div style=&quot;&quot;&gt;&lt;span style=&quot;background-color: initial;&quot;&gt;&lt;font style=&quot;font-size: 18px;&quot;&gt;LavMacchinaB&lt;/font&gt;&lt;/span&gt;&lt;/div&gt;" style="text;html=1;align=center;verticalAlign=middle;resizable=0;points=[];autosize=1;strokeColor=none;fillColor=none;" vertex="1" parent="1">
          <mxGeometry x="230" y="1460" width="140" height="40" as="geometry" />
        </mxCell>
        <mxCell id="cK3IBbtlBu3RU6C5tx7a-104" value="&lt;div style=&quot;&quot;&gt;&lt;span style=&quot;background-color: initial;&quot;&gt;&lt;font style=&quot;font-size: 18px;&quot;&gt;LavMacchinaC&lt;/font&gt;&lt;/span&gt;&lt;/div&gt;" style="text;html=1;align=center;verticalAlign=middle;resizable=0;points=[];autosize=1;strokeColor=none;fillColor=none;" vertex="1" parent="1">
          <mxGeometry x="410" y="1460" width="140" height="40" as="geometry" />
        </mxCell>
        <mxCell id="cK3IBbtlBu3RU6C5tx7a-105" value="&lt;div style=&quot;&quot;&gt;&lt;span style=&quot;background-color: initial;&quot;&gt;&lt;font style=&quot;font-size: 18px;&quot;&gt;+&lt;/font&gt;&lt;/span&gt;&lt;/div&gt;" style="text;html=1;align=center;verticalAlign=middle;resizable=0;points=[];autosize=1;strokeColor=none;fillColor=none;" vertex="1" parent="1">
          <mxGeometry x="195" y="1460" width="30" height="40" as="geometry" />
        </mxCell>
        <mxCell id="cK3IBbtlBu3RU6C5tx7a-106" value="&lt;div style=&quot;&quot;&gt;&lt;span style=&quot;background-color: initial;&quot;&gt;&lt;font style=&quot;font-size: 18px;&quot;&gt;+&lt;/font&gt;&lt;/span&gt;&lt;/div&gt;" style="text;html=1;align=center;verticalAlign=middle;resizable=0;points=[];autosize=1;strokeColor=none;fillColor=none;" vertex="1" parent="1">
          <mxGeometry x="375" y="1460" width="30" height="40" as="geometry" />
        </mxCell>
      </root>
    </mxGraphModel>
  </diagram>
</mxfile>
